#tb 0: 1/25
#media_type 0: video
#codec_id 0: rawvideo
#dimensions 0: 352x144
#sar 0: 0/1
0,          0,          0,        1,    76032, 0xad4c8a22
0,          1,          1,        1,    76032, 0x0dfdc6ad
0,          2,          2,        1,    76032, 0x6341da83
0,          3,          3,        1,    76032, 0x8dbcb05f
0,          4,          4,        1,    76032, 0xad87bbee
